<?xml version="1.0" standalone="no"?>
<!DOCTYPE svg PUBLIC "-//W3C//DTD SVG 20010904//EN"
 "http://www.w3.org/TR/2001/REC-SVG-20010904/DTD/svg10.dtd">
<svg version="1.0" xmlns="http://www.w3.org/2000/svg"
 width="410.000000pt" height="410.000000pt" viewBox="0 0 410.000000 410.000000"
 preserveAspectRatio="xMidYMid meet">
<metadata>
Created by potrace 1.11, written by Peter Selinger 2001-2013
</metadata>
<g transform="translate(0.000000,410.000000) scale(0.100000,-0.100000)"
fill="#000000" stroke="none">
<path d="M1952 3712 c-29 -27 -52 -51 -52 -54 0 -3 7 -25 15 -49 36 -100 37
-302 3 -355 -4 -6 -29 -11 -55 -12 l-48 -2 -88 135 c-49 74 -92 134 -95 133
-4 -1 -34 2 -67 6 -99 13 -98 13 -100 -14 -2 -14 -6 -87 -10 -163 l-7 -138 42
-36 c22 -20 37 -40 33 -44 -4 -4 -36 -18 -69 -31 -50 -19 -70 -33 -103 -75
-22 -29 -41 -55 -41 -58 0 -4 -6 -13 -12 -20 -23 -26 -35 -41 -98 -126 -34
-46 -66 -85 -71 -87 -5 -2 -9 -10 -9 -18 0 -8 -3 -14 -7 -14 -5 0 -19 -17 -33
-37 -14 -20 -30 -41 -35 -47 -6 -6 -24 -29 -40 -51 -17 -22 -38 -49 -47 -60
-14 -16 -88 -112 -313 -400 -44 -56 -68 -88 -171 -233 -62 -86 -117 -161 -121
-167 -5 -5 -39 -53 -76 -105 -37 -52 -96 -135 -132 -185 -35 -49 -70 -98 -77
-109 -7 -10 -25 -34 -40 -54 -43 -54 -40 -75 34 -242 19 -44 26 -62 94 -230
36 -91 72 -178 79 -195 8 -16 27 -65 44 -109 44 -110 44 -111 88 -112 21 0
128 -5 238 -9 247 -10 715 -14 720 -6 3 6 14 82 20 141 1 14 5 48 8 75 4 28 9
73 12 100 3 28 8 66 10 85 3 19 7 60 10 90 3 30 8 72 10 93 8 58 13 107 20
162 3 28 8 68 11 90 5 32 203 576 249 680 7 17 18 47 24 67 7 21 40 67 74 104
34 37 87 94 117 126 l55 60 56 -21 c60 -23 97 -27 299 -36 74 -3 167 -8 205
-10 39 -2 123 -7 188 -10 65 -3 133 -8 150 -10 18 -3 55 -7 82 -10 49 -6 73
-9 145 -19 19 -3 59 -7 88 -11 28 -3 68 -7 87 -10 115 -16 100 -22 145 54 31
52 42 81 43 117 l2 48 -75 52 c-41 29 -79 57 -85 61 -5 4 -44 30 -85 57 -41
28 -77 53 -80 56 -3 3 -21 17 -40 30 -19 14 -39 28 -45 32 -5 5 -28 22 -50 38
-22 16 -44 33 -50 38 -5 4 -28 21 -50 36 -23 16 -55 50 -73 76 -33 49 -52 67
-182 180 -82 72 -129 120 -130 134 0 5 -8 16 -18 25 -10 9 -28 30 -40 48 -13
18 -49 45 -83 62 -56 28 -68 40 -150 156 -93 133 -111 160 -104 166 2 2 6 30
10 61 l7 57 -47 50 c-26 28 -51 51 -54 51 -4 0 -30 -22 -59 -48z"/>
</g>
</svg>
