<?xml version="1.0" encoding="UTF-8" standalone="no"?><!DOCTYPE svg PUBLIC "-//W3C//DTD SVG 1.1//EN" "http://www.w3.org/Graphics/SVG/1.1/DTD/svg11.dtd"><svg width="100%" height="100%" viewBox="0 0 64 62" version="1.1" xmlns="http://www.w3.org/2000/svg" xmlns:xlink="http://www.w3.org/1999/xlink" xml:space="preserve" xmlns:serif="http://www.serif.com/" style="fill-rule:evenodd;clip-rule:evenodd;stroke-linejoin:round;stroke-miterlimit:1.41421;"><path d="M51.44,20.581l-0.756,0.914l1.688,3.665l1.107,2.403l0.057,-0.012l-1.256,-6.722l-0.204,0.004c-0.241,-0.019 -0.46,-0.111 -0.636,-0.252Z" style="fill:#fff;fill-rule:nonzero;"/><path d="M32.516,0.452c-0.127,-0.055 -0.251,-0.102 -0.372,-0.145l-1.365,1.953l-0.883,1.264l2.62,-3.072Z" style="fill:#fff;fill-rule:nonzero;"/><path d="M26.026,39.895l0.889,-1.251c-0.148,-0.133 -0.264,-0.3 -0.329,-0.491l-3.945,0.876l-0.618,0.137l1.767,0.576l1.904,0.619l0.332,-0.466Z" style="fill:#fff;fill-rule:nonzero;"/><path d="M47.965,6.475l0.918,-0.03l1.501,-0.048c-0.041,-0.238 -0.109,-0.476 -0.198,-0.713l-2.227,0.765l0.006,0.026Z" style="fill:#fff;fill-rule:nonzero;"/><path d="M8.741,8.61l5.588,-2.524l-1.987,0.431c-1.33,0.423 -2.565,1.142 -3.601,2.093Z" style="fill:#fff;fill-rule:nonzero;"/><path d="M51.287,7.286c0.183,-0.376 0.58,-0.622 1.022,-0.586l0.145,0.027l0.034,-0.065l-0.209,-0.064l-4.044,0.13l2.312,0.422l0.74,0.136Z" style="fill:#fff;fill-rule:nonzero;"/><path d="M25.62,2.075l3.037,-1.829c-0.633,0.191 -1.229,0.491 -1.756,0.885l-0.1,0.024c-0.621,-0.107 -1.258,-0.151 -1.889,-0.132l-0.058,0.547c0.323,0.059 0.593,0.245 0.766,0.505Z" style="fill:#fff;fill-rule:nonzero;"/><path d="M3.988,23.696c0.009,-0.111 0.038,-0.213 0.075,-0.312l-2.943,-1.364c-0.421,0.799 -0.727,1.649 -0.913,2.533l2.845,-0.518l0.94,-0.172l-0.004,-0.167Z" style="fill:#fff;fill-rule:nonzero;"/><path d="M16.522,34.817c0.048,0.234 0.105,0.466 0.168,0.691l2.765,-1.184l1.198,-0.514l-4.131,1.007Z" style="fill:#fff;fill-rule:nonzero;"/><path d="M28.267,6.647l-0.042,-0.007l-0.582,3.826c0.149,0.052 0.284,0.131 0.398,0.233l1.716,-1.916l0.424,-0.473c-0.207,-0.232 -0.325,-0.543 -0.297,-0.876c0.012,-0.159 0.057,-0.307 0.125,-0.44l-0.693,-0.459l-0.315,-0.208c-0.17,0.215 -0.441,0.345 -0.734,0.32Z" style="fill:#fff;fill-rule:nonzero;"/><path d="M25.863,6.537l1.202,3.884c0.096,-0.017 0.194,-0.026 0.295,-0.017l0.027,0.005l0.585,-3.843c-0.309,-0.147 -0.512,-0.471 -0.483,-0.832c0.012,-0.141 0.06,-0.268 0.131,-0.381l-2.237,-1.723c-0.106,0.086 -0.227,0.155 -0.358,0.2l0.838,2.707Z" style="fill:#fff;fill-rule:nonzero;"/><path d="M53.819,33.707l-0.017,-1.753l-0.022,-2.089l-0.102,0.002l-0.18,-0.034l-2.37,4.513l-1.239,2.359l2.988,-1.457c-0.051,-0.149 -0.074,-0.31 -0.061,-0.476c0.045,-0.556 0.473,-0.988 1.003,-1.065Z" style="fill:#fff;fill-rule:nonzero;"/><path d="M48.925,18.167l1.629,3.074l0.702,-0.848c-0.18,-0.226 -0.28,-0.516 -0.255,-0.825c0.024,-0.306 0.167,-0.572 0.376,-0.766l-5.234,-5.945l-0.023,0.016l2.805,5.294Z" style="fill:#fff;fill-rule:nonzero;"/><path d="M39.461,37.477l-0.706,5.895c0.21,0.076 0.421,0.139 0.628,0.191l0.093,0.085c0.051,0.155 0.113,0.314 0.184,0.479l0.733,-2.825l1.246,-4.804l-1.136,0.016c-0.092,0.521 -0.522,0.914 -1.042,0.963Z" style="fill:#fff;fill-rule:nonzero;"/><path d="M61.978,34.125c-0.07,-0.236 -0.152,-0.466 -0.245,-0.689l-0.146,1.307l0.206,-0.326l0.185,-0.292Z" style="fill:#fff;fill-rule:nonzero;"/><path d="M40.635,11.433l3.466,0.207l0.256,0.015c0.069,-0.351 0.287,-0.644 0.586,-0.808l-0.327,-0.938l-0.881,-2.531c-0.114,0.026 -0.231,0.041 -0.353,0.031c-0.187,-0.015 -0.357,-0.077 -0.506,-0.167l-1.849,2.422l-0.752,0.985c0.21,0.203 0.343,0.479 0.36,0.784Z" style="fill:#fff;fill-rule:nonzero;"/><path d="M42.722,37.847l5.848,11.317c0.058,-0.601 0.134,-1.176 0.227,-1.716l0.069,-0.094l0.117,0c0.193,0.095 0.395,0.183 0.618,0.265l0.082,-0.172l-4.551,-6.276l-2.41,-3.324Z" style="fill:#fff;fill-rule:nonzero;"/><path d="M46.074,36.812l0.311,0.845l3.301,8.99l-0.226,-9.553l-2.836,-0.864c-0.11,0.254 -0.306,0.459 -0.55,0.582Z" style="fill:#fff;fill-rule:nonzero;"/><path d="M38.235,36.671l-4.739,0.555l-4.631,0.542l0.002,0.1c-0.027,0.335 -0.195,0.624 -0.438,0.819l2.291,3.618c1.505,-0.627 2.858,-1.613 3.918,-2.856l0.109,-0.045l0.013,0.001l0.099,0.084c0.624,1.721 1.947,3.093 3.643,3.785l0.383,-3.189l0.313,-2.615c-0.458,-0.061 -0.826,-0.38 -0.963,-0.799Z" style="fill:#fff;fill-rule:nonzero;"/><path d="M53.083,29.641l-1.221,1.02l-5.337,4.461c0.141,0.211 0.218,0.466 0.197,0.739l-0.023,0.119l0.727,0.222l2.096,0.639l0.818,-1.556l2.909,-5.539l-0.166,-0.105Z" style="fill:#fff;fill-rule:nonzero;"/><path d="M22.802,32.507l1.751,-1.663c-0.208,-0.232 -0.326,-0.544 -0.299,-0.878c0.011,-0.131 0.047,-0.253 0.097,-0.367l-6.895,-5.684l-0.114,0.093l4.388,8.247c0.125,-0.033 0.257,-0.05 0.394,-0.04c0.262,0.022 0.495,0.131 0.678,0.292Z" style="fill:#fff;fill-rule:nonzero;"/><path d="M21.817,35.173l0.066,-0.626c-0.386,-0.049 -0.709,-0.279 -0.884,-0.601l-4.235,1.816c0.309,1.008 0.767,1.956 1.361,2.822l3.088,0.387l0.2,0.026l0.404,-3.824Z" style="fill:#fff;fill-rule:nonzero;"/><path d="M61.975,37.781l-0.597,-2.071l-2.081,5.658c1.293,-0.838 2.235,-2.098 2.678,-3.587Z" style="fill:#fff;fill-rule:nonzero;"/><path d="M49.962,47.312l3.267,0.272l0.818,0.069c0.605,-0.217 1.174,-0.523 1.692,-0.912l-4.635,-7.161l-1.375,-2.123l0.233,9.855Z" style="fill:#fff;fill-rule:nonzero;"/><path d="M20.858,33.29c0.034,-0.415 0.283,-0.76 0.626,-0.941l-0.803,-1.511l-3.567,-6.7c-0.171,0.074 -0.359,0.113 -0.556,0.097l-0.168,-0.03l-5.525,11.721l3.557,-0.866c0.62,-0.342 1.203,-0.755 1.735,-1.225l0.133,-0.023l0.083,0.106c0.023,0.198 0.056,0.409 0.099,0.642l1.209,-0.294l3.181,-0.776l-0.004,-0.2Z" style="fill:#fff;fill-rule:nonzero;"/><path d="M61.915,23.394l-1.028,0.712l-4.794,3.321l4.437,-2.449l1.916,-1.059l-0.531,-0.525Z" style="fill:#fff;fill-rule:nonzero;"/><path d="M53.235,27.656l-2.779,-6.031l-7.776,1.75c-0.017,0.153 -0.06,0.296 -0.129,0.425l4.854,2.073l5.329,2.275c0.113,-0.212 0.289,-0.383 0.501,-0.492Z" style="fill:#fff;fill-rule:nonzero;"/><path d="M27.601,38.944c-0.173,-0.015 -0.332,-0.068 -0.474,-0.147l-0.52,0.732l-0.693,0.975l2.301,2.493c0.775,-0.114 1.534,-0.313 2.258,-0.592l-2.266,-3.58c-0.183,0.09 -0.389,0.136 -0.606,0.119Z" style="fill:#fff;fill-rule:nonzero;"/><path d="M25.122,41.832l-0.613,1.041c1.107,0.24 2.257,0.297 3.39,0.167l-2.13,-2.307l-0.647,1.099Z" style="fill:#fff;fill-rule:nonzero;"/><path d="M22.854,41.115l0.936,1.575c0.149,0.044 0.3,0.085 0.452,0.122l1.308,-2.224l-1.27,-0.413l-2.462,-0.802l1.036,1.742Z" style="fill:#fff;fill-rule:nonzero;"/><path d="M15.519,23.352l-9.19,0.492l0.001,0.041c-0.031,0.378 -0.241,0.697 -0.537,0.888l4.165,9.488l0.677,1.542l5.506,-11.684c-0.31,-0.151 -0.537,-0.432 -0.622,-0.767Z" style="fill:#fff;fill-rule:nonzero;"/><path d="M43.981,7.293l1.068,3.066l0.137,0.391c0.131,-0.038 0.27,-0.057 0.415,-0.045l0.038,0.007l0.975,-3.218c-0.337,-0.142 -0.57,-0.464 -0.593,-0.838l-1.405,-0.158c-0.08,0.355 -0.319,0.643 -0.635,0.795Z" style="fill:#fff;fill-rule:nonzero;"/><path d="M25.329,31.232c-0.217,-0.018 -0.413,-0.097 -0.579,-0.215l-1.773,1.685c0.158,0.218 0.246,0.489 0.222,0.779c-0.011,0.149 -0.054,0.29 -0.116,0.417l3.789,3.046c0.102,-0.102 0.221,-0.183 0.354,-0.241l-1.325,-4.256l-0.379,-1.219l-0.193,0.004Z" style="fill:#fff;fill-rule:nonzero;"/><path d="M28.436,11.669c-0.013,0.151 -0.055,0.292 -0.119,0.421l0.458,0.25l5.388,2.937l-2.486,-5.924l-0.293,-0.7c-0.135,0.039 -0.278,0.058 -0.425,0.046c-0.219,-0.017 -0.416,-0.097 -0.583,-0.217l-1.988,2.221l-0.172,0.192c0.156,0.218 0.243,0.487 0.22,0.774Z" style="fill:#fff;fill-rule:nonzero;"/><path d="M31.625,8.554l2.856,6.806l3.048,-2.466l0.952,-0.771c-0.133,-0.209 -0.207,-0.459 -0.185,-0.725c0.008,-0.099 0.032,-0.192 0.062,-0.282l-4.03,-1.9l-2.279,-1.073c-0.106,0.17 -0.249,0.314 -0.424,0.411Z" style="fill:#fff;fill-rule:nonzero;"/><path d="M53.271,20.061c-0.124,0.341 -0.395,0.605 -0.734,0.718l1.26,6.747l0.071,-0.001c0.37,0.03 0.682,0.232 0.875,0.519l3.791,-2.626l3.116,-2.16l-8.379,-3.197Z" style="fill:#fff;fill-rule:nonzero;"/><path d="M48.446,51.138l-2.569,8.552l-0.529,1.761l3.857,-0.495c-0.356,-2.135 -0.877,-5.997 -0.759,-9.818Z" style="fill:#fff;fill-rule:nonzero;"/><path d="M45.063,34.704l-3.382,-10.294l-0.01,0.002l0.265,11.8l2.447,-0.392l-0.003,-0.149c0.035,-0.437 0.31,-0.796 0.683,-0.967Z" style="fill:#fff;fill-rule:nonzero;"/><path d="M24.481,29.368c0.169,-0.229 0.417,-0.39 0.702,-0.451l-0.339,-10.455l-0.082,-2.541l-0.111,0.002c-0.171,-0.013 -0.329,-0.065 -0.469,-0.143l-6.546,6.651c0.135,0.21 0.209,0.461 0.187,0.729c-0.016,0.207 -0.091,0.394 -0.199,0.555l1.812,1.493l5.045,4.16Z" style="fill:#fff;fill-rule:nonzero;"/><path d="M55.139,35.063c-0.076,0.444 -0.395,0.796 -0.809,0.924l0.898,4.282l1.225,5.85c1.109,-1.119 1.768,-2.583 1.866,-4.152l0.077,-0.11l0.041,-0.018l0.176,-0.083c0.111,-0.053 0.22,-0.111 0.326,-0.173l0.433,-1.176l1.838,-4.994l-6.071,-0.35Z" style="fill:#fff;fill-rule:nonzero;"/><path d="M62.021,30.848c0.93,-0.703 1.433,-1.863 1.296,-3.03c-0.042,-0.364 -0.146,-0.72 -0.31,-1.057l0.002,-0.117c0.303,-0.588 0.423,-1.246 0.346,-1.905c-0.034,-0.282 -0.104,-0.561 -0.212,-0.831l-0.277,0.104l-0.083,0.032l-0.762,6.804Z" style="fill:#fff;fill-rule:nonzero;"/><path d="M52.991,35.482l-1.2,0.585l-2.014,0.982l1.183,1.827l4.986,7.703c0.098,-0.081 0.193,-0.163 0.284,-0.247l-2.158,-10.299l-0.179,0.003c-0.386,-0.032 -0.711,-0.248 -0.902,-0.554Z" style="fill:#fff;fill-rule:nonzero;"/><path d="M38.182,36.215l0.039,-0.215l-11.22,-4.883l-0.684,-0.297c-0.141,0.166 -0.326,0.292 -0.537,0.359l1.696,5.445c0.101,-0.019 0.206,-0.031 0.315,-0.022c0.522,0.042 0.931,0.423 1.044,0.906l8.153,-0.954l1.198,-0.14l-0.004,-0.199Z" style="fill:#fff;fill-rule:nonzero;"/><path d="M25.519,28.891c0.195,0.016 0.372,0.083 0.526,0.18l5.989,-8.386c-0.263,-0.237 -0.42,-0.586 -0.389,-0.965c0.011,-0.145 0.052,-0.28 0.111,-0.405l-4.225,-2.607l-1.91,-1.179c-0.157,0.177 -0.365,0.303 -0.599,0.36l0.152,4.696l0.27,8.307l0.075,-0.001Z" style="fill:#fff;fill-rule:nonzero;"/><path d="M40.344,23.155l0.002,-0.009l-3.66,-1.55l-2.85,-1.206c-0.218,0.386 -0.645,0.634 -1.115,0.596c-0.174,-0.014 -0.333,-0.068 -0.476,-0.148l-0.779,1.092l-5.216,7.304c0.113,0.114 0.204,0.249 0.264,0.4l9.284,-3.881l4.681,-1.957c-0.102,-0.191 -0.154,-0.411 -0.135,-0.641Z" style="fill:#fff;fill-rule:nonzero;"/><path d="M46.914,7.573l-0.048,-0.009l-0.971,3.208c0.187,0.067 0.353,0.177 0.482,0.322l2.812,-1.789l2.032,-1.292c-0.032,-0.114 -0.047,-0.233 -0.037,-0.357l0.021,-0.12l-3.296,-0.603c-0.148,0.402 -0.547,0.676 -0.995,0.64Z" style="fill:#fff;fill-rule:nonzero;"/><path d="M62.102,37.278c0.195,-0.927 0.185,-1.884 -0.034,-2.808l-0.533,0.843l0.567,1.965Z" style="fill:#fff;fill-rule:nonzero;"/><path d="M54.9,28.384c0.037,0.129 0.054,0.266 0.043,0.407c-0.016,0.207 -0.09,0.395 -0.199,0.556l4.438,3.853l2.109,1.832l0.088,-0.785l0.142,-1.263c-0.248,-0.48 -0.548,-0.922 -0.898,-1.319l-0.025,-0.127l0.097,-0.086c0.368,-0.076 0.718,-0.214 1.042,-0.411l0.379,-3.388l0.389,-3.466l-7.605,4.197Z" style="fill:#fff;fill-rule:nonzero;"/><path d="M44.645,6.238l1.395,0.157c0.079,-0.372 0.364,-0.657 0.724,-0.745l-0.3,-2.564c-0.57,-0.727 -1.376,-1.222 -2.273,-1.394l-0.045,-0.018l-0.176,-0.104l-0.274,3.521c0.549,0.105 0.949,0.585 0.949,1.147Z" style="fill:#fff;fill-rule:nonzero;"/><path d="M45.828,36.901c-0.119,0.029 -0.244,0.046 -0.373,0.035c-0.504,-0.041 -0.904,-0.397 -1.032,-0.857l-2.384,0.382l7.348,10.131l-0.599,-1.631l-2.96,-8.06Z" style="fill:#fff;fill-rule:nonzero;"/><path d="M43.436,5.07l0.13,-1.677l0.152,-1.95c-0.64,-0.298 -1.345,-0.414 -2.045,-0.331l-0.064,0.011l-0.087,-0.02c-0.736,-0.47 -1.626,-0.676 -2.497,-0.575c-0.204,0.025 -0.413,0.068 -0.618,0.128l1.504,1.6l2.864,3.047c0.188,-0.141 0.415,-0.224 0.661,-0.233Z" style="fill:#fff;fill-rule:nonzero;"/><path d="M47.073,5.621c0.367,0.03 0.668,0.263 0.81,0.577l0.931,-0.32l1.268,-0.435c-0.604,-1.306 -1.887,-2.162 -3.337,-2.202l0.278,2.381l0.05,-0.001Z" style="fill:#fff;fill-rule:nonzero;"/><path d="M32.196,7.279l2.635,-0.274l7.477,-0.777l-0.002,-0.084c0.02,-0.255 0.124,-0.483 0.278,-0.665l-4.489,-4.774c-1.035,-0.569 -2.215,-0.8 -3.393,-0.663c-0.137,0.016 -0.281,0.039 -0.426,0.066l-2.431,5.856l-0.224,0.539c0.293,0.162 0.502,0.445 0.575,0.776Z" style="fill:#fff;fill-rule:nonzero;"/><path d="M29.181,5.871l-0.055,0.227l1.028,0.679c0.237,-0.282 0.6,-0.451 0.994,-0.419l0.233,0.043l2.027,-4.882l0.557,-1.34c-0.371,0.094 -0.731,0.224 -1.072,0.39l-0.115,0l-0.012,-0.006l-3.903,4.576c0.213,0.171 0.341,0.44 0.318,0.732Z" style="fill:#fff;fill-rule:nonzero;"/><path d="M63.01,23.608c-0.07,-0.133 -0.148,-0.261 -0.238,-0.386l0.002,0.071l0.013,0.439l0.223,-0.124Z" style="fill:#fff;fill-rule:nonzero;"/><path d="M53.342,19.757l-0.009,0.049l0.151,0.057l8.342,3.182l0.013,-0.08l0.096,-0.598l-0.027,-0.09c0.071,-0.348 0.085,-0.7 0.044,-1.045c-0.071,-0.61 -0.311,-1.187 -0.695,-1.67l-7.801,0.059l-0.117,0.001l0.003,0.135Z" style="fill:#fff;fill-rule:nonzero;"/><path d="M25.815,2.814c-0.019,0.239 -0.109,0.454 -0.247,0.629l2.221,1.711c0.165,-0.139 0.383,-0.216 0.614,-0.197l0.155,0.028l3.325,-4.76c-0.724,-0.211 -1.488,-0.275 -2.241,-0.186l-0.136,0.02l-0.039,0.005l-3.727,2.244c0.06,0.157 0.09,0.328 0.075,0.506Z" style="fill:#fff;fill-rule:nonzero;"/><path d="M62.513,23.231l-0.009,-0.343c-0.107,-0.115 -0.22,-0.222 -0.338,-0.32l-0.098,0.611l0.454,0.449l-0.009,-0.397Z" style="fill:#fff;fill-rule:nonzero;"/><path d="M53.039,8.393l2.833,3.23l4.307,4.909c-0.402,-1.098 -1.189,-2.028 -2.223,-2.603l-0.067,-0.111c-0.003,-0.147 -0.013,-0.295 -0.031,-0.443c-0.198,-1.698 -1.243,-3.145 -2.795,-3.869l-0.073,-0.089c-0.047,-0.205 -0.113,-0.41 -0.196,-0.61l-0.023,-0.01l-1.589,-0.654l-0.143,0.25Z" style="fill:#fff;fill-rule:nonzero;"/><path d="M52.281,8.778l0.01,7.453l0.003,2.267c0.494,0.051 0.885,0.406 1.008,0.863l7.726,-0.058c-0.162,-0.168 -0.338,-0.316 -0.526,-0.442l-0.058,-0.123c0.04,-0.366 0.039,-0.737 -0.003,-1.101c-0.019,-0.162 -0.048,-0.33 -0.088,-0.511l-0.569,-0.648l-6.935,-7.907c-0.161,0.121 -0.357,0.196 -0.568,0.207Z" style="fill:#fff;fill-rule:nonzero;"/><path d="M0.295,28.533l-0.117,-0.148c0.176,0.922 0.482,1.806 0.912,2.635l0.404,0.265l2.1,1.376l-3.299,-4.128Z" style="fill:#fff;fill-rule:nonzero;"/><path d="M23.576,14.658c0.019,-0.228 0.104,-0.434 0.232,-0.605l-7.597,-7.482c-0.14,0.121 -0.309,0.204 -0.492,0.249l0.597,8.474l0.466,6.607c0.269,0.029 0.505,0.15 0.687,0.327l6.499,-6.603c-0.265,-0.237 -0.423,-0.587 -0.392,-0.967Z" style="fill:#fff;fill-rule:nonzero;"/><path d="M54.041,29.833l0.039,3.864l0.002,0c0.592,0.048 1.041,0.529 1.072,1.105l5.865,0.338l-4.573,-3.97l-1.871,-1.624c-0.148,0.141 -0.331,0.24 -0.534,0.287Z" style="fill:#fff;fill-rule:nonzero;"/><path d="M4.035,24.121l-3.882,0.708c-0.169,0.94 -0.198,1.897 -0.088,2.845l0.019,0.137l0.008,0.049l4.019,5.03l0.426,-4.01l0.419,-3.938c-0.446,-0.079 -0.797,-0.402 -0.921,-0.821Z" style="fill:#fff;fill-rule:nonzero;"/><path d="M41.941,46.924l0.04,0.045c0.691,1.243 1.286,2.643 1.768,4.159l4.776,-1.451l0.002,-0.027l-6.678,-12.922l-2.015,7.77c0.489,0.974 1.217,1.811 2.107,2.426Z" style="fill:#fff;fill-rule:nonzero;"/><path d="M5.254,22.62c0.144,0.011 0.278,0.052 0.402,0.11l9.152,-16.066c-0.141,-0.092 -0.259,-0.21 -0.349,-0.35l-2.912,1.315l-3.338,1.508c-1.094,1.173 -1.889,2.602 -2.297,4.136l-0.05,0.074c-2.454,1.744 -3.984,4.574 -4.092,7.57l-0.023,0.07c-0.175,0.251 -0.343,0.52 -0.501,0.803l2.796,1.297l0.139,0.064c0.228,-0.348 0.63,-0.568 1.073,-0.531Z" style="fill:#fff;fill-rule:nonzero;"/><path d="M4.268,33.39l-0.064,0.129l-0.376,0.758c1.367,1.044 2.984,1.703 4.683,1.916l0.19,-0.019l1.429,-0.138l-2.025,-0.913l-3.837,-1.733Z" style="fill:#fff;fill-rule:nonzero;"/><path d="M24.841,13.582c0.253,0.021 0.479,0.122 0.659,0.274l1.043,-1.357c-0.3,-0.235 -0.481,-0.611 -0.448,-1.02l0.044,-0.237l-9.708,-4.931l-0.044,0.067l7.597,7.482c0.23,-0.196 0.534,-0.304 0.857,-0.278Z" style="fill:#fff;fill-rule:nonzero;"/><path d="M19.66,40.354c1.079,0.992 2.369,1.754 3.756,2.219l-1.358,-2.286l-0.576,-0.967l-1.822,1.034Z" style="fill:#fff;fill-rule:nonzero;"/><path d="M1.364,31.511c0.588,0.988 1.359,1.878 2.254,2.602l0.125,-0.252l0.296,-0.596l-2.675,-1.754Z" style="fill:#fff;fill-rule:nonzero;"/><path d="M27.17,12.745c-0.144,-0.012 -0.278,-0.053 -0.402,-0.111l-1.087,1.416c0.167,0.221 0.26,0.5 0.236,0.798l7.923,0.551l-0.84,-0.458l-4.822,-2.63c-0.236,0.292 -0.607,0.466 -1.008,0.434Z" style="fill:#fff;fill-rule:nonzero;"/><path d="M26.529,37.898l-0.004,-0.221c0.016,-0.196 0.084,-0.374 0.183,-0.53l-3.765,-3.025c-0.193,0.24 -0.479,0.399 -0.797,0.43l-0.468,4.424l1.796,-0.398l3.055,-0.68Z" style="fill:#fff;fill-rule:nonzero;"/><path d="M15.539,4.513c0.232,0.018 0.442,0.106 0.615,0.238l1.285,-1.484c-0.86,0.239 -1.677,0.597 -2.436,1.068l0.107,0.225c0.136,-0.041 0.28,-0.06 0.429,-0.047Z" style="fill:#fff;fill-rule:nonzero;"/><path d="M19.959,4.164l3.562,-1.117c-0.04,-0.134 -0.059,-0.276 -0.047,-0.422c0.048,-0.596 0.537,-1.047 1.119,-1.073l0.054,-0.517c-0.176,0.011 -0.358,0.026 -0.539,0.048c-1.657,0.193 -3.236,0.825 -4.566,1.827l-0.071,0.026c-0.2,0.01 -0.397,0.025 -0.596,0.048c-0.322,0.038 -0.656,0.096 -0.994,0.172l-1.537,1.775c0.077,0.091 0.136,0.197 0.182,0.309l3.433,-1.076Z" style="fill:#fff;fill-rule:nonzero;"/><path d="M18.333,38.873c0.34,0.462 0.719,0.896 1.128,1.293l1.661,-0.942l-1.001,-0.126l-1.788,-0.225Z" style="fill:#fff;fill-rule:nonzero;"/><path d="M6.609,27.282l-1.049,-2.391c-0.108,0.04 -0.224,0.062 -0.343,0.067l-0.154,1.443l-0.715,6.738l2.078,0.939l3.948,1.781l-3.765,-8.577Z" style="fill:#fff;fill-rule:nonzero;"/><path d="M41.659,35.536l-0.237,-10.59l-1.643,10.277c0.422,0.166 0.717,0.564 0.742,1.029l0.499,-0.006l0.655,-0.009l-0.016,-0.701Z" style="fill:#fff;fill-rule:nonzero;"/><path d="M39.792,12.619l0.308,1.799l1.31,7.664l0.199,-0.003l0.236,0.044l2.783,-8.292l0.311,-0.929c-0.353,-0.195 -0.587,-0.566 -0.602,-0.986l-3.719,-0.223c-0.078,0.45 -0.404,0.803 -0.826,0.926Z" style="fill:#fff;fill-rule:nonzero;"/><path d="M32.162,7.906l6.31,2.974c0.224,-0.363 0.635,-0.594 1.09,-0.557c0.186,0.015 0.356,0.076 0.505,0.167l2.601,-3.408c-0.166,-0.159 -0.282,-0.364 -0.333,-0.594l-10.112,1.05l0.002,0.085c-0.008,0.1 -0.032,0.193 -0.063,0.283Z" style="fill:#fff;fill-rule:nonzero;"/><path d="M6.311,23.583l6.98,-0.374l2.193,-0.117l-0.003,-0.122c0.047,-0.569 0.493,-1.01 1.039,-1.071l-1.061,-15.047l-0.109,0.002c-0.11,-0.008 -0.211,-0.037 -0.309,-0.073l-9.161,16.084c0.224,0.176 0.379,0.431 0.431,0.718Z" style="fill:#fff;fill-rule:nonzero;"/><path d="M34.474,15.818l-1.122,2.953c0.409,0.211 0.674,0.652 0.634,1.139l-0.045,0.24l6.459,2.736c0.035,-0.102 0.082,-0.196 0.141,-0.283l-0.128,-0.144l-5.939,-6.641Z" style="fill:#fff;fill-rule:nonzero;"/><path d="M40.71,22.401c0.126,-0.12 0.275,-0.214 0.443,-0.269l-1.62,-9.471l-0.161,0.003c-0.286,-0.023 -0.536,-0.151 -0.726,-0.339l-4.029,3.261l5.971,6.678l0.122,0.137Z" style="fill:#fff;fill-rule:nonzero;"/><path d="M16.546,6.077l9.697,4.924c0.129,-0.229 0.331,-0.405 0.572,-0.506l-0.775,-2.505l-1.27,-4.103l-0.22,0.004c-0.405,-0.033 -0.746,-0.269 -0.931,-0.601l-7.02,2.201c0.016,0.094 0.024,0.19 0.016,0.288c-0.009,0.105 -0.035,0.203 -0.069,0.298Z" style="fill:#fff;fill-rule:nonzero;"/><path d="M51.319,8.259l-4.788,3.046c0.11,0.196 0.164,0.426 0.145,0.667c-0.023,0.282 -0.149,0.53 -0.332,0.718l3.383,3.842l1.86,2.113c0.135,-0.077 0.286,-0.129 0.446,-0.148l-0.012,-9.738c-0.302,-0.06 -0.555,-0.245 -0.702,-0.5Z" style="fill:#fff;fill-rule:nonzero;"/><path d="M48.502,50.047l0.004,-0.091l-2.298,0.698l-2.381,0.724c0.863,2.814 1.341,6.005 1.421,9.498l3.254,-10.829Z" style="fill:#fff;fill-rule:nonzero;"/><path d="M31.892,19.092c0.235,-0.3 0.611,-0.48 1.018,-0.447l0.196,0.036l1.138,-2.992l-8.38,-0.583l-0.09,0.21l6.118,3.776Z" style="fill:#fff;fill-rule:nonzero;"/><path d="M45.181,13.005l-1.158,3.45l-1.937,5.772c0.322,0.18 0.549,0.505 0.595,0.88l7.654,-1.722l-1.914,-3.613l-2.536,-4.785c-0.149,0.051 -0.309,0.074 -0.475,0.06l-0.229,-0.042Z" style="fill:#fff;fill-rule:nonzero;"/><path d="M30.097,28.419l-3.514,1.469c0.013,0.087 0.02,0.177 0.012,0.269c-0.013,0.159 -0.058,0.309 -0.128,0.443l11.78,5.127l0.07,0.03c0.214,-0.398 0.651,-0.656 1.13,-0.617l0.078,0.015l1.721,-10.767c-0.246,-0.058 -0.461,-0.188 -0.618,-0.371l-10.531,4.402Z" style="fill:#fff;fill-rule:nonzero;"/><path d="M52.603,28.601l0.038,-0.209l-10.244,-4.374c-0.126,0.144 -0.284,0.255 -0.463,0.323l2.344,7.137l1.034,3.145c0.108,-0.023 0.218,-0.037 0.334,-0.027c0.279,0.023 0.524,0.146 0.711,0.325l3.96,-3.309l2.57,-2.148c-0.199,-0.23 -0.311,-0.536 -0.284,-0.863Z" style="fill:#fff;fill-rule:nonzero;"/></svg>