<?xml version="1.0" encoding="UTF-8"?>
<svg width="29px" height="29px" viewBox="0 0 29 29" version="1.1" xmlns="http://www.w3.org/2000/svg" xmlns:xlink="http://www.w3.org/1999/xlink">
    <!-- Generator: Sketch 51.3 (57544) - http://www.bohemiancoding.com/sketch -->
    <title>branch_icon</title>
    <desc>Created with Sketch.</desc>
    <defs></defs>
    <g id="Web" stroke="none" stroke-width="1" fill="none" fill-rule="evenodd">
        <g id="Project" transform="translate(-235.000000, -897.000000)">
            <g id="Profile" transform="translate(185.000000, 558.000000)">
                <g id="Group-4" transform="translate(50.000000, 260.000000)">
                    <g id="branch_icon" transform="translate(0.000000, 79.000000)">
                        <g id="Outline_Icons_1_" stroke="#F25226" stroke-linejoin="round" stroke-width="1.20000005">
                            <g id="Outline_Icons">
                                <g id="Group">
                                    <path d="M9.75608333,12.3407083 C8.96341667,10.7565833 7.32975,9.66666667 5.4375,9.66666667 C2.76829167,9.66666667 0.604166667,11.8307917 0.604166667,14.5 C0.604166667,17.1692083 2.76829167,19.3333333 5.4375,19.3333333 C7.32975,19.3333333 8.96341667,18.2434167 9.75608333,16.6592917" id="Shape"></path>
                                    <path d="M23.5625,10.2708333 C26.2317083,10.2708333 28.3958333,8.10670833 28.3958333,5.4375 C28.3958333,2.76829167 26.2317083,0.604166667 23.5625,0.604166667 C20.8932917,0.604166667 18.7291667,2.76829167 18.7291667,5.4375 C18.7291667,6.21445833 18.9176667,6.9455 19.2427083,7.59679167" id="Shape"></path>
                                    <path d="M19.2427083,21.4032083 C17.63925,24.602875 19.9652917,28.3958333 23.5625,28.3958333 C26.2317083,28.3958333 28.3958333,26.2317083 28.3958333,23.5625 C28.3958333,20.8932917 26.2317083,18.7291667 23.5625,18.7291667" id="Shape"></path>
                                    <path d="M23.5625,10.2708333 C21.67025,10.2708333 20.0365833,9.18091667 19.2427083,7.59679167 L9.75608333,12.3407083 C10.0823333,12.9895833 10.2708333,13.7218333 10.2708333,14.5 C10.2708333,15.2769583 10.0823333,16.008 9.75608333,16.6592917 L19.2427083,21.4032083 C20.0365833,19.8190833 21.67025,18.7291667 23.5625,18.7291667" id="Shape"></path>
                                </g>
                            </g>
                        </g>
                        <g id="Invisible_Shape">
                            <rect id="Rectangle-path" x="0" y="0" width="29" height="29"></rect>
                        </g>
                    </g>
                </g>
            </g>
        </g>
    </g>
</svg>