<?xml version="1.0" encoding="utf-8"?>
<!-- Generator: Adobe Illustrator 21.1.0, SVG Export Plug-In . SVG Version: 6.00 Build 0)  -->
<svg version="1.1" id="Layer_1" xmlns="http://www.w3.org/2000/svg" xmlns:xlink="http://www.w3.org/1999/xlink" x="0px" y="0px"
	 viewBox="0 0 612.9 255.1" style="enable-background:new 0 0 612.9 255.1;" xml:space="preserve">
<style type="text/css">
	.st0{fill:#BA131A;}
	.st1{fill:#ED1C24;}
	.st2{fill:#8B0304;}
</style>
<g>
	<g>
		<g>
			<g>
				<path d="M42.9,109.4c0-2.2-0.1-11.9-0.3-13.1c-0.1-0.8-1-1.4-2.8-1.8c-1.5-0.3-1.8-0.6-1.8-1.6v-1.4c0-0.9,0.2-1.1,1-1.1
					c2,0,6.5,0.3,9.8,0.3c3,0,7.6-0.2,9.8-0.3c2.5-0.1,4.9-0.1,7-0.1c5.8,0,12.1,0.4,17.7,6.1c5.5,5.5,6.6,12.7,6.6,18
					c0,5.4-1.1,12.1-7,18.3c-6.2,6.6-12.9,7.4-19.1,7.4c-0.8,0-3.6-0.1-5.2-0.2c-4.1-0.1-7-0.3-8.2-0.3c-7.1,0-10.6,0.3-11.5,0.3
					c-0.8,0-0.9-0.4-0.9-1.1v-1.4c0-1.1,0.3-1.3,1.8-1.6c2.5-0.6,2.9-1.2,2.9-2.8c0.1-2.9,0.2-8.2,0.2-12.1V109.4z M52.9,95.3
					c-0.5,0.1-1,0.1-1,0.6c-0.1,0.3-0.1,11.5-0.1,13.2l0.1,21c0,2.8,0.3,4.4,1.9,4.7c1.7,0.3,6,0.3,7.8,0.3c15,0,19-12.2,19-20.8
					c0-5.2-1.3-10.8-5.5-14.9c-4.2-4.1-9.5-4.1-18.9-4.1H52.9z"/>
				<path d="M154.8,115c0,11.2-7.1,25.6-28.1,25.6c-19.5,0-27.8-11.8-27.8-25.2c0-4.8,1-13,9-19.7c3.9-3.2,9.4-6.1,19.2-6.1
					C152,89.5,154.8,108.9,154.8,115z M108.4,114.6c0,8.9,5.6,21,18.4,21c12.8,0,18.5-11.3,18.5-20.5c0-8.4-5-20.7-18.2-20.7
					C114.2,94.4,108.4,105.4,108.4,114.6z"/>
				<path d="M163.8,137.4c0-0.8,0-1.3,2.4-1.7c1.8-0.4,2.3-0.8,2.3-4.1c0-4.1,0.2-10.8,0.2-14.9v-7.3c0-2.4,0-10.9-0.4-12.6
					c-0.3-1.4-1.1-1.7-2.4-2c-2.1-0.4-2.2-1-2.2-1.7v-1.5c0-1.1,0.4-1.2,1-1.2c1,0,3.6,0.3,5.6,0.3c2.5,0,5.4-0.3,6.4-0.3
					c0.5,0,0.6,0.1,1.5,1.2c2.8,3.6,3.1,4.1,5.9,7.3c7.5,8.8,15.2,17.5,22.8,26.3c0.1,0.1,0.4,0.5,0.5,0.5c0.1,0,0.1-0.3,0.1-0.6
					c0-1.3-0.2-7.3-0.2-8.6c-0.1-2.7-0.3-18.9-0.5-20.1c-0.3-1.2-1.3-1.5-3.6-2.2c-0.8-0.2-0.9-0.7-0.9-1.3v-1.5c0-0.8,0.4-1,1.2-1
					c1.4,0,3.6,0.3,6.1,0.3c2.4,0,5.8-0.3,7.2-0.3c0.4,0,0.9,0.2,0.9,1v1.1c0,1,0,1.5-1.5,1.7c-2.3,0.4-3,1.2-3,3.9
					c0,1.9,0,3.5-0.1,5.4c-0.1,5.5-0.2,15.2-0.2,18.7c0,2.2,0.1,11.7,0.1,13.6c0,0.6,0.1,3,0.1,3.6c0,0.7-0.1,0.8-1.4,1.7l-1,0.9
					c-0.1,0.1-0.4,0.1-0.5,0.1c-0.3,0-0.3,0-1.2-1c-5.2-6.4-30.4-35-34.3-40c-0.1-0.1-0.4-0.6-0.6-0.6c-0.1,0-0.1,0.6-0.1,0.8
					c0.2,8.2,0.3,9.1,0.3,18.1l0.1,7.4c0,1.1,0,6.1,0.1,6.8c0.2,1.4,1.6,1.7,3.3,2c1.5,0.3,1.5,1.1,1.5,1.7v1.3c0,1-0.4,1.2-1,1.2
					c-1.2,0-4.1-0.3-6-0.3c-3,0-6.5,0.3-7.7,0.3c-0.8,0-1-0.3-1-0.9V137.4z"/>
				<path d="M231.1,109.4c0-2.2-0.1-11.9-0.4-13.1c-0.1-0.8-1-1.4-2.8-1.8c-1.5-0.3-1.8-0.6-1.8-1.6v-1.4c0-0.9,0.2-1.1,1-1.1
					c2,0,6.5,0.3,9.8,0.3c3,0,7.6-0.2,9.8-0.3c2.5-0.1,4.9-0.1,7-0.1c5.8,0,12.1,0.4,17.7,6.1c5.4,5.5,6.6,12.7,6.6,18
					c0,5.4-1.1,12.1-7,18.3c-6.2,6.6-12.9,7.4-19.1,7.4c-0.8,0-3.6-0.1-5.2-0.2c-4.1-0.1-7-0.3-8.2-0.3c-7.1,0-10.6,0.3-11.5,0.3
					c-0.8,0-0.9-0.4-0.9-1.1v-1.4c0-1.1,0.4-1.3,1.8-1.6c2.5-0.6,2.9-1.2,2.9-2.8c0.1-2.9,0.2-8.2,0.2-12.1V109.4z M241,95.3
					c-0.5,0.1-1,0.1-1,0.6c-0.1,0.3-0.1,11.5-0.1,13.2l0.1,21c0,2.8,0.3,4.4,1.9,4.7c1.7,0.3,6,0.3,7.8,0.3c15,0,19-12.2,19-20.8
					c0-5.2-1.3-10.8-5.5-14.9c-4.2-4.1-9.5-4.1-18.9-4.1H241z"/>
				<path d="M292,109.4c0-2.2-0.1-11.9-0.3-13.1c-0.1-0.8-1-1.4-2.8-1.8c-1.5-0.3-1.8-0.6-1.8-1.6v-1.4c0-0.9,0.2-1.1,1-1.1
					c1.3,0,8.2,0.3,16.3,0.3c9.2,0,11.6-0.3,13.1-0.3c1.1,0,1.3,0.8,1.3,1.3l-0.4,7.8c0,1-0.6,1-1.2,1h-1c-1,0-1.3,0-1.7-2
					c-0.2-1.3-0.8-2.7-2.3-3c-0.7-0.1-4.7-0.1-5.7-0.1c-0.7,0-5.2,0-5.4,0.2c-0.3,0.2-0.3,0.5-0.3,2.7c-0.1,3.9-0.1,4.3-0.1,6.1
					c0,6.8,0,7,0.3,7.3c0.4,0.3,7.9,0.3,9.2,0.3c1.8,0,1.9,0,5.4-0.1c0.3,0,1.3-0.1,1.8-0.1c0.6,0,0.6,0.5,0.5,1.4l-0.3,2.8
					c-0.1,1.2-0.1,1.5-1.2,1.5c-0.3,0-3.7-0.2-4.4-0.3c-2.5-0.1-6.4-0.1-9-0.1c-1.3,0-2,0.1-2.2,0.8c-0.1,0.6-0.1,5.9-0.1,7
					c0,1.7,0,5.4,0.1,7.1c0.2,2.6,1.8,2.6,4.9,2.6c8.2,0,10.6,0,11.6-3.9c0.6-2.2,1.1-2.2,2-2.2h1.3c1,0,1.2,0.4,1.1,1.1l-1.1,8.4
					c-0.2,1.9-0.9,2-1.8,2c-1,0-6.1-0.3-8.5-0.4c-2-0.1-9.4-0.3-11.7-0.3c-7.1,0-9.4,0.3-10.8,0.3c-0.8,0-0.9-0.4-0.9-1.2v-1.3
					c0-1.1,0.3-1.3,1.8-1.6c2.5-0.6,2.9-1.3,2.9-2.8c0.1-3,0.2-8.2,0.2-12.2V109.4z"/>
				<path d="M343.6,120.8c0,2,0.1,12,0.3,13.1c0.3,1,1.5,1.5,2.8,1.7c1.6,0.3,1.9,0.6,1.9,1.6v1.4c0,0.8-0.1,1.1-1,1.1
					c-1.1,0-6.8-0.3-8.1-0.3c-1.4,0-7.4,0.3-8.7,0.3c-0.8,0-0.9-0.4-0.9-1.1v-1.4c0-1.1,0.4-1.3,1.9-1.6c2.5-0.6,2.9-1.2,2.9-2.8
					c0.1-2.9,0.1-8.2,0.1-12.1v-11.4c0-2.2,0-11.9-0.3-13.1c-0.2-0.8-1.1-1.4-2.8-1.8c-1.6-0.3-1.9-0.6-1.9-1.6v-1.4
					c0-0.9,0.3-1.1,1-1.1c1.7,0,6.2,0.3,9.1,0.3c2.1,0,10.2-0.3,12.6-0.3c6.4,0,9,2,10.4,3.5c2.4,2.4,3.5,5.7,3.5,8.5
					c0,1.2-0.4,8.7-7.4,11.4c-0.8,0.3-1.2,0.4-1.6,0.5c-0.3,0.1-0.6,0.1-0.6,0.3c0,0.1,3.8,7.5,6,11.2c5.3,8.9,6.7,9.4,8,9.8
					c0.4,0.1,1.7,0.5,2,0.6c0.4,0.3,0.4,0.3,0.4,1.3v1.2c0,1-0.8,1-1.3,1c-0.9,0-4.9-0.1-5.7-0.1c-1.5,0-4.1,0.1-5.6,0.1
					c-1.1,0-1.5-0.1-1.9-1.2c-2.8-7-6.2-13.8-9.5-20.6c-0.6-1.3-1.1-1.9-2.7-1.9c-2.5,0-2.9,0-2.9,1.3V120.8z M343.7,110.5
					c0,1.3,0.2,1.5,1.6,1.5c0.9,0,5.9,0,7.9-1.3c3.5-2.2,3.9-5.9,3.9-7.5c0-0.5,0-6.1-5.6-7.6c-1.8-0.5-4.6-0.5-5.9-0.5
					c-1,0-1.7,0-1.9,0.6c-0.1,0.6-0.1,3.4-0.1,4.2L343.7,110.5z"/>
				<path d="M407.9,99.4c-0.1,1-0.1,1-1.3,1h-1.2c-0.9,0-1.3,0-1.4-0.7c-0.4-1.7-0.6-3.1-2.6-4.3c-1.6-0.9-3.4-1.1-4.6-1.1
					c-4.4,0-7.5,2.7-7.5,6c0,4,2.4,5.7,12.6,12.9c3.6,2.6,8.4,6.5,8.4,12.9c0,6.6-5.5,14.3-17.7,14.3c-3.2,0-8.9-0.8-11.5-2
					c-1-0.5-1.1-0.7-1-1.7l0.8-7.2c0.1-0.6,0.1-1,1.1-1h1.3c0.5,0,1.3,0,1.4,0.8c0.5,2.7,0.7,4.1,3.7,5.4c2,0.8,4,1.1,5.2,1.1
					c5.7,0,8.5-3.9,8.5-7.2c0-4.1-3-6.2-11.1-11.7c-7.7-5.3-9.7-9.1-9.7-13.8c0-6.4,4.8-10.1,7.6-11.7c3-1.6,6.6-2,9.7-2
					c3.8,0,7.9,0.6,9.4,1.5c0.8,0.5,0.9,0.8,0.8,1.7L407.9,99.4z"/>
			</g>
		</g>
		<g>
			<g>
				<path d="M42.7,176.4v-22.8h3.1v22.8H42.7z"/>
				<path d="M94.9,176.4l-10.8-15.5c-0.9-1.3-1.8-3-1.8-3h-0.1c0,0,0.1,1.4,0.1,2.6v16h-2.8v-22.8h3l10.3,14.7
					c1.1,1.6,2.2,3.5,2.2,3.5H95c0,0-0.1-1.4-0.1-3.2v-15h2.8v22.8H94.9z"/>
				<path d="M135.9,176.8c-3.5,0-5.8-1.5-6.6-2.3l1.5-2.2c0.5,0.5,2.2,2,5.2,2c2.7,0,4.5-1.7,4.5-3.6c0-2.6-2.6-3.7-5.2-5
					c-2.8-1.4-5.2-2.9-5.2-6.5c0-3.8,3.2-5.9,6.8-5.9c3.5,0,5.3,1.2,6.1,1.8l-1.4,2.3c-0.8-0.6-2.4-1.5-4.7-1.5
					c-2.2,0-3.8,1.2-3.8,3.2c0,2.2,1.8,3.1,4.1,4.2c3,1.4,6.4,3,6.4,7.4C143.5,174.3,140.4,176.8,135.9,176.8z"/>
				<path d="M182.3,156.2v20.2h-3.1v-20.2h-6.4v-2.6h16v2.6H182.3z"/>
				<path d="M219.8,176.4v-22.8h3.1v22.8H219.8z"/>
				<path d="M263.6,156.2v20.2h-3.1v-20.2H254v-2.6h16v2.6H263.6z"/>
				<path d="M309.7,176.8c-6.3,0-9-3.5-9-9v-14.2h3.1v13.9c0,4.5,1.8,6.7,6,6.7c4,0,5.8-2.5,5.8-6.3v-14.3h2.9v14
					C318.5,173.3,315.7,176.8,309.7,176.8z"/>
				<path d="M358.9,156.2v20.2h-3.1v-20.2h-6.4v-2.6h16v2.6H358.9z"/>
				<path d="M395.1,176.4v-22.8h12v2.6h-8.9v6.9h7.8v2.6h-7.8v8.1h9.2v2.6H395.1z"/>
			</g>
		</g>
	</g>
	<g>
		<path class="st0" d="M585.7,0l-42.8,103.3l0.4,0.6c1.6,2.6,3,5.3,4.1,8l2.6,6.3L599,0H585.7z"/>
		<path class="st0" d="M527.6,137.9c-0.4,2.5-1,4.9-2,7.2l-0.1,0.3c-3.3,7.9-9.4,14-17.3,17.3c-3.9,1.6-8,2.4-12.2,2.4c0,0,0,0,0,0
			c-13,0-24.5-7.7-29.5-19.7c-3.3-7.9-3.3-16.5,0-24.4c3.3-7.9,9.4-14,17.3-17.3c3.9-1.6,8-2.4,12.2-2.4c13,0,24.5,7.7,29.5,19.7
			l28.7,69.3h13.2l-0.2-0.5c-3.2-7.7-31.1-74.9-31.4-75.6c-7.3-15.2-22.9-25-39.8-25c-5.8,0-11.5,1.1-16.9,3.4
			c-22.5,9.3-33.2,35.2-23.9,57.7c6.9,16.6,22.9,27.3,40.8,27.3c5.8,0,11.5-1.1,16.9-3.4c10-4.2,18.2-11.9,22.9-21.7l0.3-0.6
			l-7.8-18.7L527.6,137.9z"/>
		<path class="st1" d="M526.8,120.5c-7-17-26.5-25-43.5-18c-17,7-25,26.5-18,43.5c7,17,26.5,25,43.5,18c8.5-3.5,14.7-10.1,18-18
			c0-0.1,0.1-0.2,0.1-0.3c1-2.4,1.7-4.9,2.1-7.5l12.3,29.8l9.3,22.3h5.1L526.8,120.5z M506.9,159.5c-14.5,6-31.2-0.9-37.3-15.4
			c-6-14.5,0.9-31.2,15.4-37.2c14.6-6,31.2,0.9,37.3,15.4C528.4,136.8,521.5,153.5,506.9,159.5z"/>
		<path class="st1" d="M582.1,0l-40.8,98.5c1.1,1.5,2.2,3,3.2,4.7L587.2,0H582.1z"/>
		<path class="st2" d="M612.9,0h-15.4L550,114.6l-1.3-3.2c-1.2-2.9-2.6-5.6-4.2-8.2c-1-1.6-2.1-3.2-3.2-4.7
			c-15.3-20-42.7-28.1-67.1-18c-29.1,12.1-42.9,45.4-30.9,74.5c12.1,29.1,45.4,42.9,74.5,30.9c9.6-4,17.5-10.3,23.4-18l-6.7-16.2
			c-4.4,9.2-12,16.8-22.2,21c-21.8,9-46.8-1.3-55.9-23.1c-9-21.8,1.3-46.8,23.1-55.9c21.1-8.7,45.2,0.7,54.9,21
			c0.3,0.7,31.4,75.6,31.4,75.6h15.4l-23.6-57L612.9,0z"/>
	</g>
</g>
</svg>
