<?xml version="1.0" encoding="utf-8"?>
<!-- Generator: Adobe Illustrator 21.1.0, SVG Export Plug-In . SVG Version: 6.00 Build 0)  -->
<svg version="1.1" xmlns="http://www.w3.org/2000/svg" xmlns:xlink="http://www.w3.org/1999/xlink" x="0px" y="0px"
	 viewBox="0 0 386 386" style="enable-background:new 0 0 386 386;" xml:space="preserve">
<style type="text/css">
	.st0{fill:#F7A81C;}
	.st1{fill:#FFFFFF;stroke:#F7A81C;stroke-miterlimit:10;}
	.st2{fill:#15003E;}
	.st3{fill:#0FCE7C;}
	.st4{fill:#FFFFFF;}
	.st5{fill:#EFF4EE;}
	.st6{fill:#25E899;}
	.st7{fill:#9FA8DA;}
	.st8{fill:#7986CB;}
	.st9{fill:#5C6BC0;}
</style>
<g id="Layer_1">
	<path class="st0" d="M335.5,386h-285C22.7,386,0,363.3,0,335.5v-285C0,22.7,22.7,0,50.5,0h285C363.3,0,386,22.7,386,50.5v285
		C386,363.3,363.3,386,335.5,386z"/>
</g>
<g id="Layer_3">
	<path class="st1" d="M269.9,346.1H119.7c-6.6,0-12,5.4-12,12v9.8c0,6.6,5.4,12,12,12h150.2c6.6,0,12-5.4,12-12v-9.8
		C281.9,351.5,276.5,346.1,269.9,346.1z"/>
	<g id="Layer_4">
		<title>Group</title>
		<desc>Created with Sketch.</desc>
		<g id="Page-1">
			<g id="Group">
				<path id="Shape" class="st2" d="M152.5,365.4h4.9v0.4c0,0.9-0.1,1.7-0.3,2.4c-0.2,0.6-0.6,1.2-1,1.8c-1.1,1.3-2.5,1.9-4.2,1.9
					c-1.7,0-3.1-0.6-4.3-1.8c-1.2-1.2-1.8-2.7-1.8-4.4c0-1.7,0.6-3.2,1.8-4.4c1.2-1.2,2.7-1.8,4.4-1.8c0.9,0,1.8,0.2,2.6,0.6
					c0.8,0.4,1.5,1,2.3,1.9l-1.3,1.2c-1-1.3-2.2-2-3.6-2c-1.3,0-2.3,0.4-3.2,1.3c-0.9,0.9-1.3,1.9-1.3,3.2c0,1.3,0.5,2.4,1.4,3.3
					c0.9,0.8,1.9,1.2,2.9,1.2c0.9,0,1.7-0.3,2.4-0.9c0.7-0.6,1.1-1.3,1.2-2.2h-3V365.4z"/>
				<rect id="Rectangle-path" x="163.9" y="359.7" class="st2" width="1.8" height="12"/>
				<polygon id="Shape_1_" class="st2" points="176,361.4 176,371.6 174.2,371.6 174.2,361.4 171.4,361.4 171.4,359.7 178.7,359.7 
					178.7,361.4 				"/>
				<path id="Shape_2_" class="st2" d="M192.9,360.3v2.1c-1-0.9-2.1-1.3-3.2-1.3c-1.2,0-2.3,0.4-3.1,1.3c-0.8,0.9-1.3,2-1.3,3.2
					c0,1.3,0.4,2.3,1.3,3.2c0.8,0.9,1.9,1.3,3.1,1.3c0.6,0,1.2-0.1,1.6-0.3c0.2-0.1,0.5-0.2,0.8-0.4c0.3-0.2,0.5-0.4,0.8-0.6v2.2
					c-1,0.6-2.1,0.9-3.3,0.9c-1.7,0-3.2-0.6-4.4-1.8c-1.2-1.2-1.8-2.7-1.8-4.4c0-1.5,0.5-2.9,1.5-4.1c1.2-1.5,2.8-2.2,4.8-2.2
					C190.9,359.4,191.9,359.7,192.9,360.3"/>
				<path id="Shape_3_" class="st3" d="M201.5,363.7c0,1.3,0.4,2.4,1.3,3.3c0.9,0.9,1.9,1.3,3.1,1.3c1.3,0,2.3-0.4,3.2-1.3
					c0.9-0.9,1.3-1.9,1.3-3.2c0-1.3-0.4-2.3-1.3-3.2c-0.8-0.9-1.9-1.3-3.1-1.3c-1.2,0-2.3,0.4-3.2,1.3
					C202,361.4,201.5,362.5,201.5,363.7 M199.7,363.7c0-1.7,0.6-3.1,1.9-4.3c1.2-1.2,2.7-1.8,4.4-1.8c1.7,0,3.2,0.6,4.4,1.8
					c1.2,1.2,1.8,2.7,1.8,4.4c0,1.7-0.6,3.2-1.8,4.4c-1.2,1.2-2.7,1.8-4.5,1.8c-1.5,0-2.9-0.5-4.2-1.6
					C200.4,367.2,199.7,365.6,199.7,363.7"/>
				<rect id="Rectangle-path_1_" x="217.5" y="359.7" class="st2" width="1.8" height="12"/>
				<polygon id="Shape_4_" class="st2" points="226.4,371.6 226.4,358.9 235.1,368 235.1,359.7 236.9,359.7 236.9,372.4 
					228.2,363.3 228.2,371.6 				"/>
				<polygon id="Shape_5_" class="st4" points="135,360.6 136.6,363.7 135.4,368.8 132.6,366.5 133.1,362.8 				"/>
				<path id="Shape_6_" class="st2" d="M130.8,359.6c-0.3,0-0.6-0.3-0.6-0.6v-4.7c0-0.3,0.3-0.6,0.6-0.6c0.3,0,0.6,0.3,0.6,0.6v4.7
					C131.4,359.3,131.2,359.6,130.8,359.6"/>
				<path id="Shape_7_" class="st2" d="M131.8,359.6H130c-0.3,0-0.6-0.3-0.6-0.6s0.3-0.6,0.6-0.6h1.8c0.3,0,0.6,0.3,0.6,0.6
					S132.1,359.6,131.8,359.6"/>
				<path id="Shape_8_" class="st4" d="M135,360.6l1.9-1.8c-1.5-1.5-3.5-2.4-5.8-2.4c-4.5,0-8.2,3.7-8.2,8.2c0,4.5,3.7,8.2,8.2,8.2
					c1.7,0,3.2,0.6,4.5-0.3l1.6,0.2l0-2.6l-4.7-3.7l1-4.7L135,360.6"/>
				<path id="Shape_9_" class="st2" d="M131.2,373.6c-5,0-9-4-9-9s4-9,9-9c2.4,0,4.7,0.9,6.4,2.6l0.6,0.6l-2.5,2.4l-1.1-1.2l1.3-1.2
					c-1.3-1-2.9-1.6-4.6-1.6c-4.1,0-7.4,3.3-7.4,7.4c0,4.1,3.3,7.4,7.4,7.4"/>
				<path id="Shape_10_" class="st3" d="M135.7,369l-1.2-1.1c0.9-0.9,1.3-2,1.3-3.3c0-1.3-0.5-2.5-1.4-3.4l-0.6-0.6l0.6-0.6l0.6,0.6
					l0.5-0.5c1.2,1.2,1.9,2.8,1.9,4.5C137.5,366.3,136.8,367.8,135.7,369"/>
				<path id="Shape_11_" class="st5" d="M129.3,364.6c0-1,0.8-1.9,1.9-1.9s1.9,0.8,1.9,1.9c0,1-0.8,1.9-1.9,1.9
					S129.3,365.6,129.3,364.6"/>
				<path id="Shape_12_" class="st2" d="M131.2,363.6c-0.6,0-1,0.5-1,1c0,0.6,0.5,1,1,1c0.6,0,1-0.5,1-1
					C132.2,364,131.8,363.6,131.2,363.6 M131.2,367.3c-1.5,0-2.7-1.2-2.7-2.7s1.2-2.7,2.7-2.7s2.7,1.2,2.7,2.7
					S132.6,367.3,131.2,367.3"/>
				<path id="Shape_13_" class="st2" d="M137,358.8l-4.7,4.3"/>
				<polygon id="Shape_14_" class="st2" points="136.4,358.2 137.5,359.4 132.8,363.7 131.7,362.6 				"/>
				<polyline id="Shape_15_" class="st4" points="132,366.3 135.4,368.8 137.2,370.2 137.2,373.6 133.6,373.5 				"/>
				<polygon id="Shape_16_" class="st2" points="138,373.6 131,373.6 131,372 136.4,372 136.4,370.6 131.6,366.9 132.5,365.6 
					138,369.8 				"/>
				<polygon id="Shape_17_" class="st6" points="138.6,354.8 139.3,354.1 139.9,354.8 139.3,355.4 				"/>
				<polygon id="Shape_18_" class="st6" points="135.8,351.7 136.1,351.4 136.5,351.7 136.1,352 				"/>
				<path id="Shape_19_" class="st6" d="M139.7,349c0-0.3-0.2-0.5-0.5-0.5c-0.3,0-0.5,0.2-0.5,0.5c0,0.3,0.2,0.5,0.5,0.5
					C139.5,349.4,139.7,349.2,139.7,349"/>
				<path id="Shape_20_" class="st2" d="M128,361.2c-0.3,0-0.6-0.3-0.6-0.6v-6.3c0-0.3,0.3-0.6,0.6-0.6c0.3,0,0.6,0.3,0.6,0.6v6.3
					C128.6,361,128.4,361.2,128,361.2"/>
			</g>
		</g>
	</g>
	<g id="Layer_5">
		<g id="surface1_1_">
			<path class="st7" d="M259.1,364.7l6.7-10.5l6.7,10.5l-6.7,3.8L259.1,364.7z"/>
			<path class="st8" d="M265.7,354.3l6.7,10.5l-6.7,3.8V354.3z"/>
			<path class="st7" d="M259.1,366.2l6.7,3.8l6.7-3.8l-6.7,9L259.1,366.2z"/>
			<path class="st8" d="M265.7,370l6.7-3.8l-6.7,9V370z"/>
			<path class="st8" d="M259.1,364.7l6.7-2.9l6.7,2.9l-6.7,3.8L259.1,364.7z"/>
			<path class="st9" d="M265.7,361.9l6.7,2.9l-6.7,3.8V361.9z"/>
		</g>
	</g>
</g>
<g id="Layer_2">
	<path d="M47.9,48h10v10h-10V48z M57.9,48h10v10h-10V48z M67.9,48h10v10h-10V48z M77.9,48h10v10h-10V48z M87.9,48h10v10h-10V48z
		 M97.9,48h10v10h-10V48z M107.9,48h10v10h-10V48z M137.9,48h10v10h-10V48z M167.9,48h10v10h-10V48z M197.9,48h10v10h-10V48z
		 M207.9,48h10v10h-10V48z M227.9,48h10v10h-10V48z M237.9,48h10v10h-10V48z M267.9,48h10v10h-10V48z M277.9,48h10v10h-10V48z
		 M287.9,48h10v10h-10V48z M297.9,48h10v10h-10V48z M307.9,48h10v10h-10V48z M317.9,48h10v10h-10V48z M327.9,48h10v10h-10V48z
		 M47.9,58h10v10h-10V58z M107.9,58h10v10h-10V58z M127.9,58h10v10h-10V58z M137.9,58h10v10h-10V58z M157.9,58h10v10h-10V58z
		 M197.9,58h10v10h-10V58z M207.9,58h10v10h-10V58z M217.9,58h10v10h-10V58z M227.9,58h10v10h-10V58z M267.9,58h10v10h-10V58z
		 M327.9,58h10v10h-10V58z M47.9,68h10v10h-10V68z M67.9,68h10v10h-10V68z M77.9,68h10v10h-10V68z M87.9,68h10v10h-10V68z M107.9,68
		h10v10h-10V68z M137.9,68h10v10h-10V68z M157.9,68h10v10h-10V68z M167.9,68h10v10h-10V68z M177.9,68h10v10h-10V68z M197.9,68h10v10
		h-10V68z M227.9,68h10v10h-10V68z M267.9,68h10v10h-10V68z M287.9,68h10v10h-10V68z M297.9,68h10v10h-10V68z M307.9,68h10v10h-10
		V68z M327.9,68h10v10h-10V68z M47.9,78h10v10h-10V78z M67.9,78h10v10h-10V78z M77.9,78h10v10h-10V78z M87.9,78h10v10h-10V78z
		 M107.9,78h10v10h-10V78z M127.9,78h10v10h-10V78z M137.9,78h10v10h-10V78z M187.9,78h10v10h-10V78z M217.9,78h10v10h-10V78z
		 M267.9,78h10v10h-10V78z M287.9,78h10v10h-10V78z M297.9,78h10v10h-10V78z M307.9,78h10v10h-10V78z M327.9,78h10v10h-10V78z
		 M47.9,88h10v10h-10V88z M67.9,88h10v10h-10V88z M77.9,88h10v10h-10V88z M87.9,88h10v10h-10V88z M107.9,88h10v10h-10V88z M167.9,88
		h10v10h-10V88z M187.9,88h10v10h-10V88z M197.9,88h10v10h-10V88z M207.9,88h10v10h-10V88z M217.9,88h10v10h-10V88z M237.9,88h10v10
		h-10V88z M267.9,88h10v10h-10V88z M287.9,88h10v10h-10V88z M297.9,88h10v10h-10V88z M307.9,88h10v10h-10V88z M327.9,88h10v10h-10
		V88z M47.9,98h10v10h-10V98z M107.9,98h10v10h-10V98z M127.9,98h10v10h-10V98z M147.9,98h10v10h-10V98z M177.9,98h10v10h-10V98z
		 M187.9,98h10v10h-10V98z M267.9,98h10v10h-10V98z M327.9,98h10v10h-10V98z M47.9,108h10v10h-10V108z M57.9,108h10v10h-10V108z
		 M67.9,108h10v10h-10V108z M77.9,108h10v10h-10V108z M87.9,108h10v10h-10V108z M97.9,108h10v10h-10V108z M107.9,108h10v10h-10V108z
		 M127.9,108h10v10h-10V108z M147.9,108h10v10h-10V108z M167.9,108h10v10h-10V108z M187.9,108h10v10h-10V108z M207.9,108h10v10h-10
		V108z M227.9,108h10v10h-10V108z M247.9,108h10v10h-10V108z M267.9,108h10v10h-10V108z M277.9,108h10v10h-10V108z M287.9,108h10v10
		h-10V108z M297.9,108h10v10h-10V108z M307.9,108h10v10h-10V108z M317.9,108h10v10h-10V108z M327.9,108h10v10h-10V108z M157.9,118
		h10v10h-10V118z M167.9,118h10v10h-10V118z M197.9,118h10v10h-10V118z M227.9,118h10v10h-10V118z M237.9,118h10v10h-10V118z
		 M47.9,128h10v10h-10V128z M57.9,128h10v10h-10V128z M67.9,128h10v10h-10V128z M77.9,128h10v10h-10V128z M87.9,128h10v10h-10V128z
		 M107.9,128h10v10h-10V128z M117.9,128h10v10h-10V128z M127.9,128h10v10h-10V128z M137.9,128h10v10h-10V128z M147.9,128h10v10h-10
		V128z M167.9,128h10v10h-10V128z M177.9,128h10v10h-10V128z M207.9,128h10v10h-10V128z M257.9,128h10v10h-10V128z M277.9,128h10v10
		h-10V128z M297.9,128h10v10h-10V128z M317.9,128h10v10h-10V128z M47.9,138h10v10h-10V138z M77.9,138h10v10h-10V138z M87.9,138h10
		v10h-10V138z M117.9,138h10v10h-10V138z M127.9,138h10v10h-10V138z M137.9,138h10v10h-10V138z M167.9,138h10v10h-10V138z
		 M187.9,138h10v10h-10V138z M197.9,138h10v10h-10V138z M237.9,138h10v10h-10V138z M247.9,138h10v10h-10V138z M267.9,138h10v10h-10
		V138z M287.9,138h10v10h-10V138z M297.9,138h10v10h-10V138z M317.9,138h10v10h-10V138z M327.9,138h10v10h-10V138z M67.9,148h10v10
		h-10V148z M97.9,148h10v10h-10V148z M107.9,148h10v10h-10V148z M137.9,148h10v10h-10V148z M157.9,148h10v10h-10V148z M177.9,148h10
		v10h-10V148z M197.9,148h10v10h-10V148z M217.9,148h10v10h-10V148z M287.9,148h10v10h-10V148z M297.9,148h10v10h-10V148z M57.9,158
		h10v10h-10V158z M67.9,158h10v10h-10V158z M97.9,158h10v10h-10V158z M117.9,158h10v10h-10V158z M127.9,158h10v10h-10V158z
		 M137.9,158h10v10h-10V158z M147.9,158h10v10h-10V158z M157.9,158h10v10h-10V158z M167.9,158h10v10h-10V158z M187.9,158h10v10h-10
		V158z M227.9,158h10v10h-10V158z M237.9,158h10v10h-10V158z M247.9,158h10v10h-10V158z M257.9,158h10v10h-10V158z M267.9,158h10v10
		h-10V158z M277.9,158h10v10h-10V158z M287.9,158h10v10h-10V158z M297.9,158h10v10h-10V158z M317.9,158h10v10h-10V158z M57.9,168h10
		v10h-10V168z M67.9,168h10v10h-10V168z M107.9,168h10v10h-10V168z M127.9,168h10v10h-10V168z M137.9,168h10v10h-10V168z M167.9,168
		h10v10h-10V168z M177.9,168h10v10h-10V168z M187.9,168h10v10h-10V168z M197.9,168h10v10h-10V168z M297.9,168h10v10h-10V168z
		 M307.9,168h10v10h-10V168z M317.9,168h10v10h-10V168z M327.9,168h10v10h-10V168z M47.9,178h10v10h-10V178z M57.9,178h10v10h-10
		V178z M67.9,178h10v10h-10V178z M77.9,178h10v10h-10V178z M97.9,178h10v10h-10V178z M127.9,178h10v10h-10V178z M147.9,178h10v10
		h-10V178z M197.9,178h10v10h-10V178z M207.9,178h10v10h-10V178z M227.9,178h10v10h-10V178z M237.9,178h10v10h-10V178z M247.9,178
		h10v10h-10V178z M257.9,178h10v10h-10V178z M267.9,178h10v10h-10V178z M277.9,178h10v10h-10V178z M287.9,178h10v10h-10V178z
		 M317.9,178h10v10h-10V178z M327.9,178h10v10h-10V178z M57.9,188h10v10h-10V188z M77.9,188h10v10h-10V188z M87.9,188h10v10h-10V188
		z M107.9,188h10v10h-10V188z M127.9,188h10v10h-10V188z M137.9,188h10v10h-10V188z M167.9,188h10v10h-10V188z M177.9,188h10v10h-10
		V188z M187.9,188h10v10h-10V188z M197.9,188h10v10h-10V188z M247.9,188h10v10h-10V188z M287.9,188h10v10h-10V188z M307.9,188h10v10
		h-10V188z M47.9,198h10v10h-10V198z M67.9,198h10v10h-10V198z M77.9,198h10v10h-10V198z M87.9,198h10v10h-10V198z M97.9,198h10v10
		h-10V198z M127.9,198h10v10h-10V198z M137.9,198h10v10h-10V198z M197.9,198h10v10h-10V198z M207.9,198h10v10h-10V198z M227.9,198
		h10v10h-10V198z M297.9,198h10v10h-10V198z M317.9,198h10v10h-10V198z M47.9,208h10v10h-10V208z M67.9,208h10v10h-10V208z
		 M97.9,208h10v10h-10V208z M107.9,208h10v10h-10V208z M127.9,208h10v10h-10V208z M187.9,208h10v10h-10V208z M197.9,208h10v10h-10
		V208z M227.9,208h10v10h-10V208z M247.9,208h10v10h-10V208z M277.9,208h10v10h-10V208z M307.9,208h10v10h-10V208z M47.9,218h10v10
		h-10V218z M57.9,218h10v10h-10V218z M67.9,218h10v10h-10V218z M97.9,218h10v10h-10V218z M117.9,218h10v10h-10V218z M137.9,218h10
		v10h-10V218z M147.9,218h10v10h-10V218z M167.9,218h10v10h-10V218z M187.9,218h10v10h-10V218z M197.9,218h10v10h-10V218z
		 M207.9,218h10v10h-10V218z M217.9,218h10v10h-10V218z M227.9,218h10v10h-10V218z M237.9,218h10v10h-10V218z M257.9,218h10v10h-10
		V218z M277.9,218h10v10h-10V218z M287.9,218h10v10h-10V218z M297.9,218h10v10h-10V218z M327.9,218h10v10h-10V218z M47.9,228h10v10
		h-10V228z M67.9,228h10v10h-10V228z M87.9,228h10v10h-10V228z M97.9,228h10v10h-10V228z M107.9,228h10v10h-10V228z M117.9,228h10
		v10h-10V228z M127.9,228h10v10h-10V228z M137.9,228h10v10h-10V228z M157.9,228h10v10h-10V228z M177.9,228h10v10h-10V228z
		 M187.9,228h10v10h-10V228z M207.9,228h10v10h-10V228z M247.9,228h10v10h-10V228z M287.9,228h10v10h-10V228z M297.9,228h10v10h-10
		V228z M47.9,238h10v10h-10V238z M67.9,238h10v10h-10V238z M97.9,238h10v10h-10V238z M117.9,238h10v10h-10V238z M127.9,238h10v10
		h-10V238z M147.9,238h10v10h-10V238z M157.9,238h10v10h-10V238z M167.9,238h10v10h-10V238z M197.9,238h10v10h-10V238z M287.9,238
		h10v10h-10V238z M297.9,238h10v10h-10V238z M47.9,248h10v10h-10V248z M67.9,248h10v10h-10V248z M77.9,248h10v10h-10V248z
		 M107.9,248h10v10h-10V248z M117.9,248h10v10h-10V248z M177.9,248h10v10h-10V248z M207.9,248h10v10h-10V248z M217.9,248h10v10h-10
		V248z M227.9,248h10v10h-10V248z M247.9,248h10v10h-10V248z M257.9,248h10v10h-10V248z M267.9,248h10v10h-10V248z M277.9,248h10v10
		h-10V248z M287.9,248h10v10h-10V248z M297.9,248h10v10h-10V248z M307.9,248h10v10h-10V248z M127.9,258h10v10h-10V258z M157.9,258
		h10v10h-10V258z M167.9,258h10v10h-10V258z M187.9,258h10v10h-10V258z M197.9,258h10v10h-10V258z M217.9,258h10v10h-10V258z
		 M227.9,258h10v10h-10V258z M247.9,258h10v10h-10V258z M287.9,258h10v10h-10V258z M297.9,258h10v10h-10V258z M317.9,258h10v10h-10
		V258z M327.9,258h10v10h-10V258z M47.9,268h10v10h-10V268z M57.9,268h10v10h-10V268z M67.9,268h10v10h-10V268z M77.9,268h10v10h-10
		V268z M87.9,268h10v10h-10V268z M97.9,268h10v10h-10V268z M107.9,268h10v10h-10V268z M127.9,268h10v10h-10V268z M137.9,268h10v10
		h-10V268z M147.9,268h10v10h-10V268z M167.9,268h10v10h-10V268z M177.9,268h10v10h-10V268z M187.9,268h10v10h-10V268z M197.9,268
		h10v10h-10V268z M207.9,268h10v10h-10V268z M227.9,268h10v10h-10V268z M247.9,268h10v10h-10V268z M267.9,268h10v10h-10V268z
		 M287.9,268h10v10h-10V268z M297.9,268h10v10h-10V268z M47.9,278h10v10h-10V278z M107.9,278h10v10h-10V278z M157.9,278h10v10h-10
		V278z M197.9,278h10v10h-10V278z M227.9,278h10v10h-10V278z M237.9,278h10v10h-10V278z M247.9,278h10v10h-10V278z M287.9,278h10v10
		h-10V278z M297.9,278h10v10h-10V278z M47.9,288h10v10h-10V288z M67.9,288h10v10h-10V288z M77.9,288h10v10h-10V288z M87.9,288h10v10
		h-10V288z M107.9,288h10v10h-10V288z M127.9,288h10v10h-10V288z M147.9,288h10v10h-10V288z M167.9,288h10v10h-10V288z M177.9,288
		h10v10h-10V288z M247.9,288h10v10h-10V288z M257.9,288h10v10h-10V288z M267.9,288h10v10h-10V288z M277.9,288h10v10h-10V288z
		 M287.9,288h10v10h-10V288z M307.9,288h10v10h-10V288z M47.9,298h10v10h-10V298z M67.9,298h10v10h-10V298z M77.9,298h10v10h-10V298
		z M87.9,298h10v10h-10V298z M107.9,298h10v10h-10V298z M127.9,298h10v10h-10V298z M137.9,298h10v10h-10V298z M147.9,298h10v10h-10
		V298z M157.9,298h10v10h-10V298z M167.9,298h10v10h-10V298z M197.9,298h10v10h-10V298z M207.9,298h10v10h-10V298z M227.9,298h10v10
		h-10V298z M237.9,298h10v10h-10V298z M247.9,298h10v10h-10V298z M257.9,298h10v10h-10V298z M277.9,298h10v10h-10V298z M297.9,298
		h10v10h-10V298z M307.9,298h10v10h-10V298z M47.9,308h10v10h-10V308z M67.9,308h10v10h-10V308z M77.9,308h10v10h-10V308z M87.9,308
		h10v10h-10V308z M107.9,308h10v10h-10V308z M127.9,308h10v10h-10V308z M137.9,308h10v10h-10V308z M147.9,308h10v10h-10V308z
		 M177.9,308h10v10h-10V308z M187.9,308h10v10h-10V308z M197.9,308h10v10h-10V308z M227.9,308h10v10h-10V308z M267.9,308h10v10h-10
		V308z M287.9,308h10v10h-10V308z M297.9,308h10v10h-10V308z M317.9,308h10v10h-10V308z M47.9,318h10v10h-10V318z M107.9,318h10v10
		h-10V318z M127.9,318h10v10h-10V318z M137.9,318h10v10h-10V318z M157.9,318h10v10h-10V318z M167.9,318h10v10h-10V318z M197.9,318
		h10v10h-10V318z M207.9,318h10v10h-10V318z M237.9,318h10v10h-10V318z M247.9,318h10v10h-10V318z M317.9,318h10v10h-10V318z
		 M47.9,328h10v10h-10V328z M57.9,328h10v10h-10V328z M67.9,328h10v10h-10V328z M77.9,328h10v10h-10V328z M87.9,328h10v10h-10V328z
		 M97.9,328h10v10h-10V328z M107.9,328h10v10h-10V328z M127.9,328h10v10h-10V328z M137.9,328h10v10h-10V328z M147.9,328h10v10h-10
		V328z M187.9,328h10v10h-10V328z M217.9,328h10v10h-10V328z M257.9,328h10v10h-10V328z M267.9,328h10v10h-10V328z M297.9,328h10v10
		h-10V328z M307.9,328h10v10h-10V328z"/>
</g>
</svg>
