<?xml version="1.0" encoding="UTF-8"?>
<svg width="72px" height="71px" viewBox="0 0 72 71" version="1.1" xmlns="http://www.w3.org/2000/svg" xmlns:xlink="http://www.w3.org/1999/xlink">
    <!-- Generator: Sketch 51.3 (57544) - http://www.bohemiancoding.com/sketch -->
    <title>github_icon</title>
    <desc>Created with Sketch.</desc>
    <defs></defs>
    <g id="Web" stroke="none" stroke-width="1" fill="none" fill-rule="evenodd">
        <g id="Landing-Page-" transform="translate(-965.000000, -7810.000000)">
            <g id="People" transform="translate(-3.000000, 6843.000000)">
                <g id="TIM" transform="translate(291.000000, 457.000000)">
                    <g id="github_icon" transform="translate(677.000000, 510.000000)">
                        <g id="Outline_Icons" stroke="#F25226" stroke-linejoin="round" stroke-width="3">
                            <path d="M35.997,1.5 C16.947,1.5 1.5,16.944 1.5,36 C1.5,51.246 11.382,64.176 25.095,68.742 C26.817,69.054 27.363,68.034 27.363,67.119 C27.363,66.297 27.381,64.008 27.363,61.128 C17.769,63.21 15.78,56.583 15.78,56.583 C14.214,52.596 11.955,51.537 11.955,51.537 C8.82,49.395 12.186,49.44 12.186,49.44 C15.645,49.68 17.472,52.992 17.472,52.992 C20.55,58.266 25.545,56.742 27.51,55.86 C27.825,53.634 28.716,52.107 29.703,51.252 C22.041,50.376 13.989,47.421 13.989,34.194 C13.989,30.429 15.333,27.351 17.541,24.936 C17.187,24.069 15.999,20.559 17.877,15.81 C17.877,15.81 20.778,14.88 27.363,19.35 C30.117,18.582 33.069,18.201 36.003,18.186 C38.934,18.201 41.883,18.582 44.643,19.35 C51.228,14.886 54.12,15.81 54.12,15.81 C56.001,20.559 54.816,24.072 54.462,24.939 C56.67,27.354 58.011,30.432 58.011,34.197 C58.011,47.457 49.947,50.37 42.258,51.219 C43.494,52.29 44.619,54.36 44.619,57.579 C44.619,61.893 44.619,65.997 44.619,67.131 C44.619,68.055 45.177,69.072 46.929,68.739 C60.627,64.167 70.5,51.24 70.5,36 C70.5,16.944 55.056,1.5 35.997,1.5 Z" id="Shape"></path>
                        </g>
                        <g id="Frames-24px">
                            <rect id="Rectangle-path" x="0" y="0" width="72" height="72"></rect>
                        </g>
                    </g>
                </g>
            </g>
        </g>
    </g>
</svg>