<?xml version="1.0" encoding="utf-8"?>
<!-- Generator: Adobe Illustrator 21.1.0, SVG Export Plug-In . SVG Version: 6.00 Build 0)  -->
<svg version="1.1" id="Layer_1" xmlns="http://www.w3.org/2000/svg" xmlns:xlink="http://www.w3.org/1999/xlink" x="0px" y="0px"
	 viewBox="0 0 413.5 82.5" style="enable-background:new 0 0 413.5 82.5;" xml:space="preserve">
<style type="text/css">
	.st0{fill:#0083CA;}
	.st1{fill:#00174D;}
</style>
<g>
	<rect x="227.2" y="71.2" class="st0" width="38" height="9"/>
</g>
<path class="st1" d="M9.7,48.3c1.8,1,7.2,3.3,12.6,3.3c5.6,0,7.6-2.5,7.6-6c0-3.7-2.5-4.7-6.8-6.4l-3.3-1.3C10.8,34.5,8,29.6,8,21.7
	C8,11.2,16.4,5.2,28.2,5.2c4.2,0,9.5,0.4,14,2.2l-0.6,10.9c-2.6-1.4-7.2-2.8-11.4-2.8c-4.5,0-7.2,1.8-7.2,5.2c0,2.9,1.4,4.1,6.4,6.4
	l6.7,3c5,2.3,9.4,5.8,9.4,14.1c0,12.2-8.7,18.4-21.7,18.4c-6.7,0-12-1.4-14.8-2.1L9.7,48.3z"/>
<rect x="53.6" y="6.2" class="st1" width="16.9" height="55.5"/>
<path class="st1" d="M97.1,51h3.3c8.6,0,12.9-6.1,12.9-16.9c0-14.2-6.8-17-14.9-17h-1.2V51z M82.2,6.2h21.4
	c16.3,0,25.4,10.9,25.4,27.4c0,19.2-10.2,28.1-27.7,28.1H82.2V6.2z"/>
<polygon class="st1" points="151.3,23.2 151,23.2 151,61.7 137.9,61.7 137.9,6.2 155.3,6.2 169.8,44.4 170,44.4 170,6.2 183,6.2 
	183,61.7 165.5,61.7 "/>
<g>
	<path class="st0" d="M246.2,63.3c-11.7,0-21.2-9.3-21.2-20.8c0-11.5,9.5-20.8,21.2-20.8c11.7,0,21.2,9.3,21.2,20.8
		C267.4,53.9,257.9,63.3,246.2,63.3z M246.2,30.6c-6.8,0-12.3,5.3-12.3,11.9c0,6.5,5.5,11.9,12.3,11.9c6.8,0,12.3-5.3,12.3-11.9
		C258.5,35.9,253,30.6,246.2,30.6z"/>
</g>
<path class="st0" d="M195.8,61.9h24.8v-7.4h-7V31h8.6v-7.4h-8.6v-3c0-5.8,3.3-6.3,7.6-6.3c1.4,0,2.6,0.3,3.8,0.7V6.8
	c-2.4-0.3-4.9-0.7-7.3-0.7c-12.4,0-15.1,7.1-15.1,13.3v4.3h-7V31h7v23.6h-7V61.9z"/>
<path class="st0" d="M271.5,61.9h21.1v-7.4h-4.9v-14c0-4.9,2.4-10.3,8.3-10.3c4.4,0,6.7,3.8,6.7,7.7v16.6h-4.9v7.4h21.1v-7.4h-5.3
	v-17c0-9.7-3.5-15.1-13.7-15.1c-5.5,0-10.4,2.7-13,7.6h-0.2v-6.5h-15.2V31h5.3v23.6h-5.3V61.9z"/>
<path class="st0" d="M374.6,61.9h8.2v-4.1h0.2c2.2,3.1,5.6,5.2,11.4,5.2c8.3,0,13.7-5.5,13.7-12.3c0-16.9-22.7-9.1-22.7-16.9
	c0-3.6,3.7-4.1,5.9-4.1c4,0,7,2,7,6.5h8.6V23.6h-8.2v4h-0.2c-2.5-3.9-5.9-5.2-10.3-5.2c-7,0-13.8,3.8-13.8,11.8c0,17,22.7,9,22.7,17
	c0,3.6-3.4,4.4-5.7,4.4c-4.4,0-8.2-2.5-8.2-7.3h-8.6V61.9z"/>
<path class="st0" d="M342.4,55.3c-4.7,0-8.1-4.3-8.1-12.5c0-6.3,2.1-12.5,9.1-12.5c6.7,0,9.5,5.6,9.5,12
	C352.9,50.3,350.6,55.3,342.4,55.3 M363.1,7.2h-16.2v7.4h5.3v14.7h-0.2c-1.8-3.7-5.4-6.8-11.9-6.8c-10,0-17.2,6.8-17.2,20.9
	c0,10.3,5.4,19.7,16.5,19.7c6.8,0,10.2-2.1,13.6-7.5h0.2v6.4h15.2v-7.4h-5.3V7.2z"/>
</svg>
